<svg version="1.1" id="Layer_1" xmlns="http://www.w3.org/2000/svg" xmlns:xlink="http://www.w3.org/1999/xlink" x="0px" y="0px"
	 width="100%" viewBox="0 0 256 256" enable-background="new 0 0 256 256" xml:space="preserve">
<path fill="#000000" opacity="1.000000" stroke="none" 
	d="
M151.000000,257.000000 
	C136.645767,257.000000 122.291542,257.000000 107.239471,256.734253 
	C106.117798,256.212402 105.721268,255.803528 105.266212,255.722275 
	C87.026390,252.464951 70.417038,245.335983 55.251476,234.749756 
	C30.540457,217.500366 14.198669,194.278717 5.309038,165.550491 
	C3.812731,160.714935 3.933706,155.393845 1.000000,151.000000 
	C1.000000,136.645767 1.000000,122.291542 1.271258,107.238480 
	C3.264402,103.584122 2.953796,100.139542 3.840905,96.964218 
	C10.569385,72.880287 22.488062,51.980015 40.878330,34.819569 
	C55.612190,21.071018 72.608162,11.487966 91.787552,5.444770 
	C97.153534,3.754014 102.876190,3.476850 108.000000,1.000000 
	C122.020897,1.000000 136.041794,1.000000 150.767639,1.265187 
	C156.228027,2.844147 161.012161,4.062761 165.734283,5.486964 
	C199.280640,15.604601 224.589279,36.033882 241.866226,66.469612 
	C249.743881,80.347176 254.181656,95.399902 257.000000,111.000000 
	C257.000000,122.687561 257.000000,134.375122 256.963013,146.907089 
	C255.812820,150.728973 255.814468,153.953293 255.031555,156.966934 
	C242.384506,205.648376 212.468933,238.029129 164.180969,253.112473 
	C159.802902,254.480011 154.991455,254.369156 151.000000,257.000000 
M124.202591,22.364883 
	C121.704399,22.414637 119.169060,22.203827 116.713661,22.553801 
	C86.902740,26.802801 62.303909,40.327137 43.991024,64.409813 
	C26.645798,87.219940 18.980900,113.235466 22.673378,141.582352 
	C27.214581,176.444855 45.362034,203.145523 75.450508,221.468338 
	C91.844345,231.451614 110.024719,236.137146 128.972504,236.296494 
	C142.182938,236.407562 155.281464,233.752106 167.758987,228.704193 
	C189.420715,219.940659 206.699646,205.827347 219.190536,186.198471 
	C231.438400,166.951523 237.157974,145.886597 235.761688,122.840477 
	C235.006653,110.378487 232.467087,98.438858 227.396591,87.212486 
	C211.987396,53.095711 185.802536,31.860870 149.205322,23.882988 
	C141.355667,22.171827 133.250336,21.093189 124.202591,22.364883 
z"/>
<path fill="#000000" opacity="1.000000" stroke="none" 
	d="
M91.002899,117.622086 
	C98.168449,117.620331 104.834602,117.631256 111.500679,117.613441 
	C118.480209,117.594780 118.607567,117.475914 118.619865,110.700264 
	C118.639229,100.034508 118.604477,89.368591 118.646957,78.702957 
	C118.674149,71.875504 122.546997,67.522903 128.841644,67.763588 
	C133.965500,67.959496 139.691422,70.562462 139.451904,78.865265 
	C139.134872,89.855156 139.516205,100.863800 139.309540,111.858978 
	C139.227814,116.207268 140.792542,117.765800 145.136169,117.687469 
	C156.298218,117.486153 167.466583,117.590294 178.632095,117.642845 
	C184.677078,117.671295 188.553894,121.002312 189.301834,126.616447 
	C190.037674,132.139587 186.653458,137.046082 181.025833,138.463928 
	C173.470383,140.367447 165.770386,139.065979 158.141678,139.364639 
	C153.649063,139.540527 149.140076,139.502441 144.645218,139.354813 
	C140.791534,139.228226 139.286819,140.865982 139.334625,144.720734 
	C139.468903,155.551468 139.396484,166.385071 139.365326,177.217438 
	C139.344315,184.524261 135.613678,188.496506 128.972351,188.382782 
	C122.308693,188.268661 118.660393,184.310471 118.638374,177.069016 
	C118.607468,166.903259 118.637489,156.737366 118.621239,146.571548 
	C118.609970,139.516953 118.489670,139.407043 111.217941,139.397217 
	C101.552101,139.384155 91.881546,139.563461 82.222275,139.308914 
	C76.988327,139.171005 71.979889,138.193375 69.606567,132.294983 
	C66.622711,124.879204 71.029022,117.777115 79.004646,117.637993 
	C82.836510,117.571152 86.670456,117.623665 91.002899,117.622086 
z"/>
</svg>